<svg width="57" height="77" fill="none" xmlns="http://www.w3.org/2000/svg"><path d="M38.495 11.005a.7.7 0 010 .99L34.04 16.45a.7.7 0 11-.99-.99l3.96-3.96-3.96-3.96a.7.7 0 11.99-.99l4.455 4.455zM8.319 75.662a99.211 99.211 0 01-.733-3.33l1.372-.278c.221 1.095.462 2.19.723 3.284l-1.362.324zm-1.853-10.06a91.906 91.906 0 01-.634-6.792l1.398-.077a89.87 89.87 0 00.624 6.689l-1.388.18zm-.739-13.616c.06-2.322.222-4.6.487-6.82l1.39.165a72.573 72.573 0 00-.477 6.692l-1.4-.037zm1.654-13.561a51.715 51.715 0 011.973-6.572l1.31.494a50.318 50.318 0 00-1.919 6.393l-1.364-.315zm4.907-12.796a33.21 33.21 0 014.052-5.59l1.039.94a31.808 31.808 0 00-3.881 5.354l-1.21-.704zm9.281-10.13a26.86 26.86 0 016.212-3.075l.456 1.324a25.458 25.458 0 00-5.89 2.915L21.57 15.5zm12.97-4.53A34.822 34.822 0 0138 10.8v1.4c-1.142 0-2.249.055-3.322.162l-.139-1.393zm4.451-.459a1.4 1.4 0 010 1.98l-8.91 8.91a1.4 1.4 0 01-1.98-1.98l7.92-7.92-7.92-7.92a1.4 1.4 0 011.98-1.98l8.91 8.91zM7.638 75.824A100.847 100.847 0 016.9 72.47l2.744-.555c.22 1.087.46 2.174.718 3.26l-2.724.65zm-1.866-10.13a92.602 92.602 0 01-.639-6.845l2.796-.155a89.81 89.81 0 00.62 6.637l-2.777.362zm-.745-13.726a74.67 74.67 0 01.492-6.885l2.78.331a71.872 71.872 0 00-.473 6.627l-2.799-.073zM6.7 38.267a52.416 52.416 0 012-6.66l2.62.987a49.617 49.617 0 00-1.892 6.304L6.7 38.267zm4.984-12.99a33.909 33.909 0 014.138-5.707l2.077 1.878a31.102 31.102 0 00-3.795 5.236l-2.42-1.407zm9.497-10.36a27.554 27.554 0 016.373-3.155l.911 2.648a24.754 24.754 0 00-5.728 2.835l-1.556-2.327zm13.29-4.645A35.514 35.514 0 0138 10.1v2.8c-1.12 0-2.203.054-3.252.159l-.278-2.787z" fill="#fff"/></svg>