<svg width="226" height="49" fill="none" xmlns="http://www.w3.org/2000/svg"><path d="M2.91 44.926a.7.7 0 00.788.599l6.242-.851a.7.7 0 10-.189-1.387l-5.548.756-.757-5.549a.7.7 0 10-1.387.19l.85 6.242zm222.126-.876a87.435 87.435 0 00-2.379-2.714l-1.033.944a86.864 86.864 0 012.34 2.67l1.072-.9zm-7.455-7.843a96.682 96.682 0 00-5.455-4.72l-.877 1.091a94.833 94.833 0 015.376 4.652l.956-1.023zm-11.235-9.034a110.789 110.789 0 00-6.054-3.913l-.722 1.2a109.611 109.611 0 015.978 3.864l.798-1.15zm-12.339-7.439a129.114 129.114 0 00-6.478-3.154l-.578 1.275c2.178.987 4.315 2.027 6.407 3.12l.649-1.24zm-13.115-5.954a148.406 148.406 0 00-6.768-2.461l-.447 1.326a146.77 146.77 0 016.704 2.439l.511-1.304zm-13.641-4.6a167.042 167.042 0 00-6.954-1.83l-.328 1.36a165.44 165.44 0 016.896 1.816l.386-1.346zm-13.979-3.368a184.378 184.378 0 00-7.081-1.256l-.218 1.383c2.358.371 4.701.787 7.027 1.246l.272-1.373zm-14.205-2.24a198.25 198.25 0 00-7.156-.721l-.115 1.395c2.376.196 4.745.434 7.105.716l.166-1.39zm-14.332-1.186c-2.394-.112-4.79-.183-7.187-.212l-.017 1.4c2.38.029 4.761.1 7.138.21l.066-1.398zM110.36 2.21c-2.4.053-4.796.148-7.185.283l.079 1.398c2.373-.134 4.753-.228 7.137-.281l-.031-1.4zm-14.356.813c-2.396.219-4.78.478-7.15.779l.176 1.389a204.02 204.02 0 017.1-.774l-.126-1.394zm-14.267 1.81c-2.379.388-4.738.818-7.075 1.289l.276 1.372c2.32-.467 4.663-.894 7.024-1.28l-.225-1.381zM67.64 7.677a177.583 177.583 0 00-6.954 1.83l.384 1.347c2.27-.647 4.57-1.253 6.9-1.816l-.33-1.361zm-13.826 3.95a155.675 155.675 0 00-6.773 2.425l.503 1.306a154.216 154.216 0 016.712-2.402l-.442-1.329zM40.39 16.8c-2.221.985-4.39 2.017-6.503 3.097l.637 1.246a129.52 129.52 0 016.433-3.063l-.567-1.28zm-12.82 6.567a105.036 105.036 0 00-6.087 3.876l.792 1.154a104.17 104.17 0 016.006-3.824l-.712-1.206zm-11.882 8.187a82.468 82.468 0 00-5.425 4.778l.97 1.008a81.068 81.068 0 015.334-4.696l-.88-1.09zM5.305 41.6a66.348 66.348 0 00-2.259 2.809l1.115.847a64.808 64.808 0 012.211-2.75L5.305 41.6zm-3.089 3.42a1.4 1.4 0 001.577 1.198l12.484-1.701a1.4 1.4 0 00-.378-2.775L4.802 43.255 3.289 32.157a1.4 1.4 0 00-2.774.379L2.216 45.02zm223.356-1.42c-.78-.928-1.58-1.84-2.398-2.736l-2.067 1.888a85.81 85.81 0 012.321 2.65l2.144-1.802zm-7.514-7.904a97.03 97.03 0 00-5.494-4.755l-1.753 2.183a94.114 94.114 0 015.336 4.618l1.911-2.046zm-11.313-9.098a111.793 111.793 0 00-6.092-3.937l-1.444 2.399a108.992 108.992 0 015.94 3.839l1.596-2.3zm-12.414-7.484a129.644 129.644 0 00-6.513-3.172l-1.156 2.55a126.83 126.83 0 016.372 3.104l1.297-2.482zm-13.184-5.986a149.449 149.449 0 00-6.8-2.473l-.893 2.654a145.8 145.8 0 016.672 2.427l1.021-2.607zm-13.703-4.621a167.605 167.605 0 00-6.984-1.838l-.654 2.722c2.312.556 4.602 1.159 6.866 1.808l.772-2.692zm-14.036-3.382a185.332 185.332 0 00-7.108-1.26l-.436 2.765c2.349.37 4.684.784 7.001 1.242l.543-2.747zm-14.259-2.249a198.454 198.454 0 00-7.181-.723l-.23 2.79c2.368.196 4.729.434 7.08.714l.331-2.78zm-14.381-1.189a207.645 207.645 0 00-7.211-.213l-.034 2.8c2.372.029 4.744.099 7.113.21l.132-2.797zm-14.423-.177a210.27 210.27 0 00-7.209.284l.158 2.796a205.08 205.08 0 017.113-.28l-.062-2.8zm-14.405.816c-2.404.22-4.796.48-7.174.781l.352 2.778c2.345-.297 4.705-.554 7.076-.77l-.254-2.79zM81.624 4.142c-2.387.39-4.755.821-7.1 1.294l.552 2.745a193.85 193.85 0 016.999-1.276l-.451-2.763zM67.476 6.997c-2.356.57-4.684 1.182-6.981 1.837l.768 2.693c2.26-.644 4.552-1.248 6.872-1.809l-.659-2.721zm-13.882 3.966a156.432 156.432 0 00-6.803 2.435l1.005 2.614c2.185-.84 4.414-1.638 6.681-2.392l-.883-2.657zM40.107 16.16c-2.233.99-4.413 2.028-6.537 3.113l1.274 2.494a128.754 128.754 0 016.398-3.047l-1.135-2.56zm-12.893 6.605a106.265 106.265 0 00-6.127 3.9l1.586 2.309a103.427 103.427 0 015.965-3.798l-1.424-2.411zM15.25 31.01a83.128 83.128 0 00-5.471 4.818l1.942 2.016a80.383 80.383 0 015.288-4.656L15.25 31.01zM4.772 41.146a66.83 66.83 0 00-2.283 2.838l2.23 1.694a64.383 64.383 0 012.186-2.72l-2.133-1.812z" fill="#fff"/></svg>