<svg width="14" height="12" fill="none" xmlns="http://www.w3.org/2000/svg"><path d="M12.772 1.162c-1.638-1.55-4.29-1.55-5.927 0l-5.89 5.57a2.973 2.973 0 000 4.365c1.273 1.204 3.345 1.204 4.617 0l5.89-5.57a2.13 2.13 0 000-3.128c-.912-.862-2.396-.862-3.308 0L3.13 7.15a.444.444 0 000 .654c.191.18.5.18.69 0l5.025-4.75a1.42 1.42 0 011.927 0 1.24 1.24 0 010 1.822l-5.89 5.57a2.381 2.381 0 01-3.237 0 2.092 2.092 0 01-.67-1.53c0-.579.238-1.122.67-1.53l5.89-5.57c1.257-1.188 3.29-1.188 4.546 0a2.926 2.926 0 010 4.297L9.463 8.588a.444.444 0 000 .653c.19.18.5.18.69 0l2.619-2.476c1.638-1.548 1.637-4.055 0-5.603z" fill="#000"/></svg>