<svg width="24" height="24" fill="none" xmlns="http://www.w3.org/2000/svg"><path d="M22.691 1.309A4.44 4.44 0 0019.531 0H4.47A4.474 4.474 0 000 4.469V19.53A4.474 4.474 0 004.469 24H19.53A4.474 4.474 0 0024 19.531V4.47a4.44 4.44 0 00-1.309-3.16zm-.097 18.222a3.066 3.066 0 01-3.063 3.063H4.47a3.066 3.066 0 01-3.063-3.063V4.47A3.066 3.066 0 014.47 1.406h15.06c.818 0 1.587.319 2.166.897.578.579.897 1.348.897 2.166V19.53z" fill="#BCBCBC"/><path d="M16.225 10.195a.703.703 0 00-.994 0l-2.528 2.527v-7.5a.703.703 0 00-1.406 0v7.5l-2.528-2.527a.703.703 0 00-.994.994l3.728 3.728a.703.703 0 00.994 0l3.728-3.728a.703.703 0 000-.994z" fill="#BCBCBC"/><path d="M18.778 18.075H5.222a.703.703 0 000 1.406h13.556a.703.703 0 000-1.406z" fill="#3E82E7"/></svg>