<svg width="16" height="16" fill="none" xmlns="http://www.w3.org/2000/svg"><path d="M8 8.793a.547.547 0 00.547-.547v-6.7a.547.547 0 10-1.094 0v6.7c0 .302.245.547.547.547z" fill="#4F5DD9"/><path d="M6.81 11.044l.003.003c.32.32.74.48 1.16.48.42 0 .84-.16 1.159-.48l3.027-3.015a.547.547 0 00-.772-.775L8.36 10.273a.543.543 0 01-.772.002L4.616 7.26a.547.547 0 10-.779.767l2.973 3.016zm7.643 1.222a.547.547 0 00-.547.546c0 .604-.49 1.094-1.094 1.094H3.188c-.604 0-1.094-.49-1.094-1.094a.547.547 0 00-1.094 0A2.19 2.19 0 003.188 15h9.624A2.19 2.19 0 0015 12.812a.547.547 0 00-.547-.546z" fill="#4F5DD9"/><path d="M8 8.793a.547.547 0 00.547-.547v-6.7a.547.547 0 10-1.094 0v6.7c0 .302.245.547.547.547z" stroke="#3E82E7" stroke-width=".3"/><path d="M6.81 11.044l.003.003c.32.32.74.48 1.16.48.42 0 .84-.16 1.159-.48l3.027-3.015a.547.547 0 00-.772-.775L8.36 10.273a.543.543 0 01-.772.002L4.616 7.26a.547.547 0 10-.779.767l2.973 3.016zm7.643 1.222a.547.547 0 00-.547.546c0 .604-.49 1.094-1.094 1.094H3.188c-.604 0-1.094-.49-1.094-1.094a.547.547 0 00-1.094 0A2.19 2.19 0 003.188 15h9.624A2.19 2.19 0 0015 12.812a.547.547 0 00-.547-.546z" stroke="#3E82E7" stroke-width=".3"/></svg>