<svg width="16" height="12" fill="none" xmlns="http://www.w3.org/2000/svg"><path d="M8.032 7.206c.673 0 1.218-.54 1.218-1.206 0-.666-.545-1.206-1.218-1.206-.673 0-1.219.54-1.219 1.206 0 .666.546 1.206 1.219 1.206z" fill="#4F5DD9"/><path d="M8.032 2.474C6.067 2.474 4.469 4.056 4.469 6c0 1.944 1.598 3.526 3.563 3.526 1.964 0 3.562-1.582 3.562-3.526 0-1.944-1.598-3.526-3.562-3.526zm0 5.815C6.757 8.289 5.719 7.262 5.719 6c0-1.262 1.038-2.289 2.313-2.289 1.275 0 2.312 1.027 2.312 2.289 0 1.262-1.037 2.289-2.312 2.289z" fill="#4F5DD9"/><path d="M15.595 4.65a12.006 12.006 0 00-2.792-2.927C11.258.58 9.647 0 8.014 0c-1.63 0-3.243.578-4.793 1.718A12.092 12.092 0 00.41 4.641a2.45 2.45 0 000 2.718 12.091 12.091 0 002.81 2.923C4.77 11.422 6.384 12 8.014 12c2.51 0 4.529-1.385 5.78-2.547a.614.614 0 00.028-.875.63.63 0 00-.883-.027c-1.087 1.009-2.824 2.212-4.925 2.212-3.035 0-5.55-2.567-6.558-4.084a1.224 1.224 0 010-1.358c1.008-1.517 3.523-4.084 6.558-4.084 3.034 0 5.535 2.57 6.534 4.088.27.41.27.94 0 1.35a.615.615 0 00.182.856.63.63 0 00.865-.18c.54-.821.54-1.881 0-2.701z" fill="#4F5DD9"/></svg>