<svg width="14" height="14" fill="none" xmlns="http://www.w3.org/2000/svg"><path d="M13.039.961a3.281 3.281 0 00-4.64 0L5.656 3.703c-1.325 1.326-1.203 3.438 0 4.64.202.202.424.367.66.501l.5-.5c.329-.328.213-.712.207-.99a1.585 1.585 0 01-.207-.17c-.617-.617-.645-1.675 0-2.32L9.56 2.12a1.642 1.642 0 012.32 2.32l-1.813 1.813c.052.29.367.977.205 2.11.008-.007.018-.012.025-.02L13.04 5.6a3.281 3.281 0 000-4.64z" fill="#4F5DD9"/><path d="M8.556 5.444a3.123 3.123 0 00-.66-.5l-.5.5c-.328.328-.212.712-.207.989.073.05.143.106.207.17.618.618.645 1.676 0 2.32L4.441 11.88a1.642 1.642 0 01-2.32-2.32l2.025-2.026c-.052-.29-.367-.977-.205-2.11-.008.008-.017.013-.025.02L.961 8.4a3.281 3.281 0 004.64 4.64l2.955-2.955c1.301-1.3 1.23-3.41 0-4.64z" fill="#4F5DD9"/></svg>