<svg width="168" height="15" fill="none" xmlns="http://www.w3.org/2000/svg"><path d="M8.08 1.46H4.62V14h-.88V1.46H.28v-.8h7.8v.8zM28.6 14l-1.78-4.38h-5.68L19.36 14h-.96L24.02.26 29.56 14h-.96zm-7.14-5.18h5.04L24 2.5l-2.54 6.32zm26.873-6.44l-.64.54c-.56-1.093-1.433-1.64-2.62-1.64-.76 0-1.366.24-1.82.72-.44.48-.66 1.067-.66 1.76 0 .347.047.647.14.9.107.253.287.487.54.7.267.213.5.38.7.5.2.107.52.267.96.48 1.44.693 2.327 1.16 2.66 1.4.947.653 1.42 1.513 1.42 2.58 0 1.107-.406 2.033-1.22 2.78-.813.747-1.793 1.12-2.94 1.12-1.266 0-2.3-.467-3.1-1.4a4.677 4.677 0 01-.86-1.46l.76-.36c.16.48.4.907.72 1.28.6.76 1.434 1.14 2.5 1.14.907 0 1.667-.293 2.28-.88.627-.587.94-1.32.94-2.2 0-.867-.433-1.567-1.3-2.1-.386-.227-1.14-.613-2.26-1.16-.733-.36-1.273-.653-1.62-.88a2.731 2.731 0 01-.82-.88 2.901 2.901 0 01-.42-1.52c0-.867.294-1.633.88-2.3.587-.68 1.434-1.02 2.54-1.02.68 0 1.307.167 1.88.5.574.32 1.027.787 1.36 1.4zM63.367.66v6.28l6.3-6.28h1.16l-6.46 6.38 6.84 6.96h-1.2l-6.28-6.36-.36.34V14h-.88V.66h.88z" fill="#000"/><path d="M83.888 14V.66h2.92c1.146 0 2.046.307 2.7.92.653.6.98 1.407.98 2.42 0 1.307-.52 2.28-1.56 2.92.853.133 1.526.507 2.02 1.12.493.613.74 1.353.74 2.22 0 1.147-.387 2.06-1.16 2.74-.76.667-1.754 1-2.98 1h-3.66zm.88-12.54V6.7h2.12c.76 0 1.366-.187 1.82-.56.586-.48.88-1.16.88-2.04 0-.893-.3-1.587-.9-2.08-.48-.373-1.22-.56-2.22-.56h-1.7zm0 6.04v5.7h2.24c.413 0 .74-.007.98-.02.24-.027.546-.1.92-.22a2.63 2.63 0 001-.56c.573-.507.86-1.187.86-2.04 0-1.213-.474-2.04-1.42-2.48-.574-.253-1.407-.38-2.5-.38h-2.08zm21.683-5.02c1.333-1.333 2.973-2 4.92-2s3.587.667 4.92 2c1.333 1.333 2 2.96 2 4.88s-.667 3.547-2 4.88c-1.333 1.32-2.973 1.98-4.92 1.98-1.96 0-3.607-.66-4.94-1.98-1.32-1.333-1.98-2.96-1.98-4.88s.667-3.547 2-4.88zm.64 9.2c1.147 1.16 2.573 1.74 4.28 1.74 1.707 0 3.133-.58 4.28-1.74 1.147-1.173 1.72-2.613 1.72-4.32 0-1.72-.573-3.16-1.72-4.32-1.147-1.173-2.573-1.76-4.28-1.76-1.707 0-3.133.587-4.28 1.76-1.147 1.16-1.72 2.6-1.72 4.32 0 1.707.573 3.147 1.72 4.32zm25.956-9.2c1.334-1.333 2.974-2 4.92-2 1.947 0 3.587.667 4.92 2 1.334 1.333 2 2.96 2 4.88s-.666 3.547-2 4.88c-1.333 1.32-2.973 1.98-4.92 1.98-1.96 0-3.606-.66-4.94-1.98-1.32-1.333-1.98-2.96-1.98-4.88s.667-3.547 2-4.88zm.64 9.2c1.147 1.16 2.574 1.74 4.28 1.74 1.707 0 3.134-.58 4.28-1.74 1.147-1.173 1.72-2.613 1.72-4.32 0-1.72-.573-3.16-1.72-4.32-1.146-1.173-2.573-1.76-4.28-1.76-1.706 0-3.133.587-4.28 1.76-1.146 1.16-1.72 2.6-1.72 4.32 0 1.707.574 3.147 1.72 4.32zM159.243.66v6.28l6.3-6.28h1.16l-6.46 6.38 6.84 6.96h-1.2l-6.28-6.36-.36.34V14h-.88V.66h.88z" fill="#4F5DD9"/></svg>