<svg width="21" height="20" fill="none" xmlns="http://www.w3.org/2000/svg"><path d="M20.762 9.17L12.214.656A2.478 2.478 0 008.866.649L.241 9.167a.806.806 0 00-.001 1.148c.32.318.84.318 1.16.002l.65-.643v7.009c0 1.79 1.473 3.247 3.282 3.247h2.953c.453 0 .82-.364.82-.812v-6.616h2.872v6.616c0 .448.367.812.82.812h2.871c1.81 0 3.281-1.457 3.281-3.247a.816.816 0 00-.82-.812.816.816 0 00-.82.812c0 .895-.736 1.623-1.641 1.623h-2.05V11.69a.816.816 0 00-.821-.812H8.285a.816.816 0 00-.82.812v6.616H5.332c-.905 0-1.64-.728-1.64-1.623V8.078l-.001-.024 6.315-6.237a.826.826 0 011.064.002l6.239 6.215v4.59c0 .448.367.811.82.811.453 0 .82-.363.82-.811V9.668l.649.646a.822.822 0 001.16.004.806.806 0 00.004-1.148z" fill="#8094AE"/></svg>