<svg width="21" height="21" fill="none" xmlns="http://www.w3.org/2000/svg"><path d="M9.599 19.324H2.463a.812.812 0 01-.663-.337.81.81 0 01-.118-.733c.81-2.517 3.283-4.274 6.013-4.274a6.14 6.14 0 013.526 1.104.818.818 0 10.938-1.343 7.798 7.798 0 00-1.635-.872 4.166 4.166 0 001.358-2.75 6.117 6.117 0 014.302-1.743c1.27 0 2.49.382 3.526 1.104a.821.821 0 001.142-.203.818.818 0 00-.203-1.14 7.8 7.8 0 00-1.636-.872 4.163 4.163 0 001.372-3.09 4.184 4.184 0 00-8.366 0c0 1.22.525 2.317 1.361 3.081a7.836 7.836 0 00-1.785.968A4.184 4.184 0 003.53 9.78c0 1.215.522 2.31 1.354 3.074-2.225.833-4.029 2.62-4.763 4.9a2.429 2.429 0 00.354 2.199 2.437 2.437 0 001.988 1.01H9.6a.82.82 0 100-1.638zm6.603-17.686a2.543 2.543 0 012.542 2.538 2.543 2.543 0 01-5.085 0c0-1.4 1.14-2.538 2.543-2.538zM7.712 7.24a2.543 2.543 0 012.543 2.539 2.543 2.543 0 01-5.085 0c0-1.4 1.14-2.539 2.542-2.539z" fill="#8094AE"/><path d="M20.657 13.374a.821.821 0 00-1.144.19L15.47 19.2a.465.465 0 01-.323.16.462.462 0 01-.351-.125l-2.618-2.509a.821.821 0 00-1.16.024.818.818 0 00.024 1.157l2.62 2.512a2.117 2.117 0 001.594.575 2.116 2.116 0 001.531-.818l4.06-5.66a.818.818 0 00-.19-1.143z" fill="#8094AE"/></svg>