<svg width="21" height="21" fill="none" xmlns="http://www.w3.org/2000/svg"><path d="M20.18 14.438a.82.82 0 00.82-.82V4.921a3.285 3.285 0 00-3.281-3.281h-1.067V.82a.82.82 0 10-1.64 0v.82h-3.733V.82a.82.82 0 00-1.64 0v.82H5.947V.82a.82.82 0 10-1.64 0v.82H3.28A3.285 3.285 0 000 4.92v12.8A3.285 3.285 0 003.281 21H17.72A3.285 3.285 0 0021 17.719a.82.82 0 10-1.64 0c0 .904-.737 1.64-1.641 1.64H3.28c-.904 0-1.64-.736-1.64-1.64V4.922c0-.905.736-1.64 1.64-1.64h1.026v.82a.82.82 0 101.64 0v-.82H9.64v.82a.82.82 0 101.64 0v-.82h3.733v.82a.82.82 0 001.64 0v-.82h1.067c.904 0 1.64.735 1.64 1.64v8.695c0 .453.368.82.82.82z" fill="#8094AE"/><path d="M5.127 9.434a.82.82 0 100-1.641.82.82 0 000 1.64zm7.137 0a.82.82 0 100-1.641.82.82 0 000 1.64zm3.568 0a.82.82 0 100-1.64.82.82 0 000 1.64zM5.127 13.002a.82.82 0 100-1.64.82.82 0 000 1.64zm0 3.568a.82.82 0 100-1.64.82.82 0 000 1.64zm3.568-7.136a.82.82 0 100-1.641.82.82 0 000 1.64zm0 3.568a.82.82 0 100-1.64.82.82 0 000 1.64zm0 3.568a.82.82 0 100-1.64.82.82 0 000 1.64zm3.569-3.568a.82.82 0 100-1.64.82.82 0 000 1.64zm3.568 0a.82.82 0 100-1.64.82.82 0 000 1.64zm-3.568 3.568a.82.82 0 100-1.64.82.82 0 000 1.64z" fill="#8094AE"/></svg>