<svg width="21" height="21" fill="none" xmlns="http://www.w3.org/2000/svg"><path d="M10.5 5.742A4.763 4.763 0 005.742 10.5a4.763 4.763 0 006.195 4.537.82.82 0 10-.495-1.564 3.12 3.12 0 01-4.06-2.973A3.12 3.12 0 0110.5 7.383a3.12 3.12 0 012.992 3.994.82.82 0 101.575.46A4.763 4.763 0 0010.5 5.742z" fill="#8094AE"/><path d="M18.54 7.629h-.414a.273.273 0 01-.25-.172l-.007-.018a.275.275 0 01.054-.301l.292-.292c.96-.96.96-2.521 0-3.48l-.58-.58a2.445 2.445 0 00-1.74-.721c-.658 0-1.276.256-1.74.72l-.293.292a.275.275 0 01-.301.054l-.015-.006a.274.274 0 01-.175-.25V2.46A2.464 2.464 0 0010.911 0h-.821a2.464 2.464 0 00-2.461 2.46v.414a.274.274 0 01-.174.25l-.016.007a.275.275 0 01-.301-.054l-.292-.292a2.445 2.445 0 00-1.74-.72c-.658 0-1.276.256-1.74.72l-.58.58c-.96.96-.96 2.521 0 3.48l.291.293a.276.276 0 01.053.304l-.005.012a.274.274 0 01-.25.175H2.46A2.464 2.464 0 000 10.089v.821a2.464 2.464 0 002.46 2.461h.414c.109 0 .207.069.25.172l.007.018a.275.275 0 01-.054.301l-.292.292a2.445 2.445 0 00-.72 1.74c0 .658.256 1.276.72 1.74l.58.58a2.44 2.44 0 001.74.721 2.44 2.44 0 001.74-.72l.293-.292a.275.275 0 01.301-.054l.016.006a.274.274 0 01.174.25v.414A2.464 2.464 0 0010.089 21h.821a2.464 2.464 0 002.461-2.46v-.414c0-.109.069-.207.173-.25l.017-.007a.275.275 0 01.301.053l.292.293c.465.465 1.083.72 1.74.72a2.44 2.44 0 001.74-.72l.58-.58a2.442 2.442 0 00.722-1.74c0-.658-.256-1.276-.721-1.74l-.292-.293a.275.275 0 01-.054-.302l.006-.014a.274.274 0 01.25-.175h.414A2.464 2.464 0 0021 10.911v-.821a2.464 2.464 0 00-2.46-2.461zm.82 3.281c0 .453-.369.82-.82.82h-.414a1.91 1.91 0 00-1.767 1.19l-.006.012a1.91 1.91 0 00.41 2.09l.292.292a.819.819 0 010 1.16l-.58.58a.815.815 0 01-.58.24.815.815 0 01-.58-.24l-.293-.292a1.91 1.91 0 00-2.091-.408l-.012.005a1.91 1.91 0 00-1.189 1.767v.413a.82.82 0 01-.82.82h-.82a.821.821 0 01-.82-.82v-.413a1.91 1.91 0 00-1.19-1.768l-.011-.004a1.901 1.901 0 00-2.091.409l-.292.292a.815.815 0 01-.58.24.815.815 0 01-.58-.24l-.58-.58a.815.815 0 01-.24-.58c0-.22.085-.426.24-.58l.292-.293a1.91 1.91 0 00.409-2.09l-.006-.013a1.91 1.91 0 00-1.767-1.189h-.413a.821.821 0 01-.82-.82v-.82c0-.452.368-.82.82-.82h.413a1.91 1.91 0 001.769-1.192l.003-.01a1.91 1.91 0 00-.408-2.09l-.293-.292a.821.821 0 010-1.16l.58-.58a.815.815 0 01.58-.24c.22 0 .426.085.58.24l.293.292a1.91 1.91 0 002.091.408l.012-.005A1.91 1.91 0 009.27 2.874v-.413c0-.452.368-.82.82-.82h.82a.82.82 0 01.82.82v.413c0 .776.467 1.47 1.19 1.768l.011.004c.722.3 1.543.14 2.091-.408l.292-.293a.815.815 0 01.58-.24c.22 0 .426.086.58.24l.58.58c.32.32.32.84 0 1.16l-.292.293a1.91 1.91 0 00-.41 2.088l.007.015a1.91 1.91 0 001.767 1.189h.413c.452 0 .82.368.82.82v.82z" fill="#8094AE"/></svg>