<svg width="21" height="21" fill="none" xmlns="http://www.w3.org/2000/svg"><path d="M20.143 15.217c.473 0 .857-.367.857-.82v-3.774c0-1.357-1.154-2.46-2.571-2.46h-1.672V4.921c0-1.81-1.538-3.281-3.428-3.281H11.29C10.96.667 10.011 0 8.927 0H7.83C6.746 0 5.797.667 5.466 1.64H3.429C1.539 1.64 0 3.114 0 4.923V17.72C0 19.528 1.538 21 3.429 21H7.2c.473 0 .857-.367.857-.82 0-.453-.384-.82-.857-.82H3.429c-.946 0-1.715-.737-1.715-1.641V4.922c0-.905.77-1.64 1.715-1.64h.085v2.42c0 .452.384.82.857.82h8.1c.474 0 .858-.368.858-.82v-2.42c.945 0 1.714.735 1.714 1.64v3.24h-2.786c-1.418 0-2.571 1.104-2.571 2.46v7.917c0 1.357 1.153 2.461 2.572 2.461l6.17-.003c1.418 0 2.572-1.104 2.572-2.46 0-.454-.384-.821-.857-.821-.474 0-.857.367-.857.82 0 .452-.385.82-.858.82l-6.17.003c-.473 0-.858-.368-.858-.82v-7.916c0-.452.384-.82.857-.82h6.172c.472 0 .857.368.857.82v3.774c0 .453.383.82.857.82zM11.614 4.88H5.23v-1.6h.9a.851.851 0 00.831-.621l.12-.46a.766.766 0 01.75-.56h1.097c.356 0 .664.231.75.56l.12.46a.851.851 0 00.832.621h.985v1.6z" fill="#8094AE"/><path d="M16.714 11.443h-2.743c-.473 0-.857.368-.857.82 0 .454.384.821.857.821h2.743c.474 0 .857-.367.857-.82 0-.453-.383-.82-.857-.82zm0 2.871h-2.743c-.473 0-.857.368-.857.82 0 .454.384.821.857.821h2.743c.474 0 .857-.367.857-.82 0-.453-.383-.82-.857-.82z" fill="#8094AE"/></svg>