<svg width="226" height="49" viewBox="0 0 226 49" fill="none" xmlns="http://www.w3.org/2000/svg">
<path d="M2.90992 44.9257C2.96212 45.3087 3.31498 45.5769 3.69804 45.5247L9.94032 44.6739C10.3234 44.6217 10.5916 44.2688 10.5394 43.8858C10.4872 43.5027 10.1343 43.2345 9.75125 43.2867L4.20255 44.043L3.44628 38.4943C3.39406 38.1113 3.04121 37.843 2.65815 37.8953C2.27509 37.9475 2.00689 38.3003 2.0591 38.6834L2.90992 44.9257ZM225.036 44.0501C224.262 43.1293 223.469 42.2246 222.657 41.3358L221.624 42.28C222.422 43.1547 223.203 44.0449 223.964 44.9508L225.036 44.0501ZM217.581 36.2072C215.829 34.5715 214.009 32.9982 212.126 31.4865L211.249 32.5783C213.106 34.0687 214.9 35.6193 216.625 37.2305L217.581 36.2072ZM206.346 27.1735C204.383 25.8108 202.363 24.5067 200.292 23.2604L199.57 24.4599C201.616 25.6911 203.61 26.9788 205.548 28.3237L206.346 27.1735ZM194.007 19.7344C191.89 18.6287 189.73 17.5774 187.529 16.5799L186.951 17.855C189.129 18.8421 191.266 19.8819 193.358 20.9752L194.007 19.7344ZM180.892 13.7802C178.669 12.9092 176.411 12.0889 174.124 11.3186L173.677 12.6455C175.944 13.4086 178.18 14.2212 180.381 15.0837L180.892 13.7802ZM167.251 9.17983C164.957 8.52244 162.638 7.91249 160.297 7.34944L159.969 8.71062C162.291 9.26907 164.591 9.87393 166.865 10.5257L167.251 9.17983ZM153.272 5.81201C150.928 5.34852 148.566 4.93002 146.191 4.556L145.973 5.93896C148.331 6.3102 150.674 6.72553 153 7.18543L153.272 5.81201ZM139.067 3.57157C136.69 3.28824 134.304 3.04807 131.911 2.85055L131.796 4.2458C134.172 4.44194 136.541 4.68043 138.901 4.96172L139.067 3.57157ZM124.735 2.38637C122.341 2.27389 119.945 2.20327 117.548 2.17404L117.531 3.57394C119.911 3.60297 122.292 3.67311 124.669 3.78483L124.735 2.38637ZM110.36 2.21011C107.96 2.26339 105.564 2.35784 103.175 2.493L103.254 3.89077C105.627 3.75651 108.007 3.66269 110.391 3.60976L110.36 2.21011ZM96.0035 3.02291C93.6082 3.24158 91.2238 3.50133 88.8539 3.80165L89.0299 5.19055C91.3835 4.89228 93.7516 4.63431 96.1308 4.41711L96.0035 3.02291ZM81.7365 4.83284C79.3582 5.22121 76.9987 5.6511 74.6617 6.12202L74.9382 7.49444C77.2581 7.02697 79.6007 6.60016 81.9621 6.21454L81.7365 4.83284ZM67.6409 7.67691C65.294 8.24467 62.9747 8.85509 60.687 9.50764L61.0711 10.8539C63.3401 10.2067 65.6412 9.60106 67.9701 9.03765L67.6409 7.67691ZM53.8149 11.6272C51.5174 12.3909 49.2583 13.1992 47.0421 14.0515L47.5446 15.3582C49.7401 14.5138 51.9789 13.7128 54.2565 12.9557L53.8149 11.6272ZM40.3906 16.8003C38.1696 17.7851 36.0003 18.8174 33.8882 19.8966L34.5252 21.1433C36.6136 20.0762 38.7596 19.0549 40.9581 18.0801L40.3906 16.8003ZM27.5704 23.3675C25.47 24.6079 23.4391 25.9 21.4837 27.2429L22.2764 28.3969C24.2042 27.0728 26.2082 25.7979 28.2823 24.573L27.5704 23.3675ZM15.6888 31.5544C13.7856 33.0905 11.9747 34.6834 10.2635 36.332L11.2349 37.3402C12.9151 35.7214 14.6952 34.1555 16.5681 32.6438L15.6888 31.5544ZM5.3052 41.5991C4.52249 42.5203 3.76912 43.4565 3.04621 44.4075L4.1608 45.2547C4.86798 44.3243 5.6054 43.4079 6.37207 42.5057L5.3052 41.5991ZM2.21632 45.0202C2.32075 45.7863 3.02645 46.3227 3.79257 46.2183L16.2771 44.5167C17.0433 44.4122 17.5797 43.7065 17.4752 42.9404C17.3708 42.1743 16.6651 41.6379 15.899 41.7423L4.80161 43.2549L3.28904 32.1575C3.18463 31.3914 2.47891 30.855 1.71281 30.9594C0.946687 31.0638 0.410284 31.7695 0.514697 32.5356L2.21632 45.0202ZM225.572 43.5998C224.792 42.6715 223.992 41.7595 223.174 40.8638L221.107 42.7521C221.899 43.6197 222.673 44.5027 223.428 45.4012L225.572 43.5998ZM218.058 35.6956C216.294 34.0476 214.46 32.4629 212.564 30.9406L210.811 33.1241C212.655 34.604 214.435 36.1431 216.147 37.7421L218.058 35.6956ZM206.745 26.5984C204.769 25.2268 202.736 23.9145 200.653 22.6606L199.209 25.0597C201.242 26.2833 203.224 27.5628 205.149 28.8988L206.745 26.5984ZM194.331 19.1139C192.203 18.002 190.03 16.945 187.818 15.9423L186.662 18.4926C188.828 19.4744 190.954 20.5086 193.034 21.5956L194.331 19.1139ZM181.147 13.1285C178.913 12.2532 176.645 11.429 174.347 10.6552L173.454 13.3089C175.71 14.0685 177.935 14.8772 180.126 15.7355L181.147 13.1285ZM167.444 8.50692C165.14 7.84669 162.811 7.23419 160.46 6.66886L159.806 9.39121C162.118 9.94737 164.408 10.5497 166.672 11.1986L167.444 8.50692ZM153.408 5.12531C151.054 4.66002 148.684 4.23993 146.3 3.86452L145.864 6.63044C148.213 7.00029 150.548 7.41404 152.865 7.87214L153.408 5.12531ZM139.149 2.87649C136.765 2.59215 134.37 2.35113 131.968 2.15292L131.738 4.94343C134.106 5.13888 136.467 5.37652 138.818 5.6568L139.149 2.87649ZM124.768 1.68714C122.366 1.57428 119.961 1.50342 117.557 1.47409L117.523 4.27388C119.895 4.30282 122.267 4.37272 124.636 4.48406L124.768 1.68714ZM110.345 1.51028C107.937 1.56374 105.533 1.65851 103.136 1.79412L103.294 4.58965C105.659 4.45585 108.031 4.36234 110.407 4.30959L110.345 1.51028ZM95.9398 2.32581C93.5364 2.54522 91.1439 2.80585 88.7659 3.1072L89.1179 5.88499C91.4633 5.58776 93.8234 5.33067 96.1944 5.11421L95.9398 2.32581ZM81.6236 4.14199C79.237 4.53173 76.869 4.96317 74.5234 5.43582L75.0765 8.18064C77.3878 7.7149 79.7219 7.28964 82.0749 6.90539L81.6236 4.14199ZM67.4763 6.99653C65.1204 7.56647 62.7919 8.1793 60.495 8.83449L61.2631 11.5271C63.5229 10.8825 65.8148 10.2793 68.1347 9.71803L67.4763 6.99653ZM53.594 10.9629C51.2867 11.7299 49.0174 12.5419 46.7908 13.3982L47.7959 16.0116C49.9811 15.1712 52.2097 14.3737 54.4773 13.6199L53.594 10.9629ZM40.1069 16.1604C37.8745 17.1502 35.6937 18.188 33.5697 19.2733L34.8437 21.7667C36.9203 20.7056 39.0547 19.6898 41.2418 18.7201L40.1069 16.1604ZM27.2144 22.7648C25.1009 24.0129 23.0565 25.3135 21.0874 26.6659L22.6727 28.974C24.5868 27.6593 26.5772 26.3929 28.6382 25.1758L27.2144 22.7648ZM15.2492 31.0097C13.3308 32.558 11.5044 34.1644 9.77781 35.8279L11.7205 37.8443C13.3853 36.2404 15.15 34.688 17.0078 33.1885L15.2492 31.0097ZM4.77177 41.1459C3.98103 42.0765 3.21971 43.0225 2.48894 43.9839L4.71807 45.6783C5.4174 44.7583 6.14686 43.8517 6.9055 42.9589L4.77177 41.1459Z" fill="white"/>
</svg>
