<svg width="57" height="77" viewBox="0 0 57 77" fill="none" xmlns="http://www.w3.org/2000/svg">
<path d="M38.495 11.005C38.7683 11.2784 38.7683 11.7216 38.495 11.995L34.0402 16.4497C33.7668 16.7231 33.3236 16.7231 33.0503 16.4497C32.7769 16.1764 32.7769 15.7332 33.0503 15.4598L37.0101 11.5L33.0503 7.5402C32.7769 7.26683 32.7769 6.82362 33.0503 6.55025C33.3236 6.27688 33.7668 6.27688 34.0402 6.55025L38.495 11.005ZM8.31904 75.6621C8.05488 74.5527 7.81036 73.442 7.58563 72.3314L8.95782 72.0538C9.17939 73.1487 9.42049 74.2439 9.68096 75.3379L8.31904 75.6621ZM6.4657 65.6028C6.16821 63.3216 5.95654 61.0531 5.8322 58.8101L7.23005 58.7326C7.35243 60.9401 7.56082 63.174 7.85395 65.4218L6.4657 65.6028ZM5.72719 51.9864C5.78773 49.6645 5.94933 47.3857 6.21397 45.1655L7.60413 45.3312C7.34487 47.5063 7.18619 49.7419 7.12671 52.0229L5.72719 51.9864ZM7.38114 38.4246C7.91049 36.1382 8.56701 33.9408 9.35374 31.8533L10.6638 32.347C9.90067 34.3719 9.26156 36.5095 8.74506 38.7404L7.38114 38.4246ZM12.2877 25.6286C13.4717 23.5932 14.821 21.72 16.3402 20.0394L17.3788 20.9783C15.9302 22.5808 14.6371 24.374 13.4979 26.3325L12.2877 25.6286ZM21.5692 15.4997C23.4647 14.2324 25.5347 13.1974 27.7812 12.4244L28.2366 13.7483C26.1047 14.4818 24.1431 15.4629 22.3473 16.6635L21.5692 15.4997ZM34.5392 10.9689C35.6599 10.857 36.8135 10.8 38 10.8L38 12.2C36.8584 12.2 35.7513 12.2549 34.6783 12.362L34.5392 10.9689ZM38.99 10.51C39.5367 11.0568 39.5367 11.9432 38.9899 12.4899L30.0804 21.3995C29.5337 21.9462 28.6472 21.9462 28.1005 21.3995C27.5538 20.8528 27.5538 19.9663 28.1005 19.4196L36.0201 11.5L28.1005 3.5804C27.5538 3.03367 27.5538 2.14724 28.1005 1.60051C28.6472 1.05377 29.5337 1.05377 30.0804 1.6005L38.99 10.51ZM7.63807 75.8243C7.37208 74.7071 7.12585 73.5886 6.89954 72.4703L9.64391 71.9149C9.8639 73.002 10.1033 74.0894 10.3619 75.1757L7.63807 75.8243ZM5.77158 65.6933C5.4719 63.3954 5.2586 61.1096 5.13327 58.8488L7.92898 58.6938C8.05037 60.8836 8.25713 63.1003 8.54807 65.3313L5.77158 65.6933ZM5.02742 51.9682C5.0885 49.6258 5.25156 47.3255 5.51889 45.0827L8.29921 45.4141C8.04264 47.5666 7.88542 49.7806 7.82647 52.0412L5.02742 51.9682ZM6.69918 38.2667C7.23495 35.9526 7.90018 33.7252 8.69871 31.6064L11.3188 32.5939C10.5675 34.5874 9.9371 36.6951 9.42702 38.8983L6.69918 38.2667ZM11.6827 25.2766C12.8889 23.2028 14.2665 21.2897 15.8209 19.57L17.8981 21.4477C16.4847 23.0112 15.2198 24.7644 14.103 26.6845L11.6827 25.2766ZM21.1801 14.9178C23.1255 13.6171 25.2497 12.5551 27.5534 11.7625L28.4644 14.4102C26.3897 15.124 24.4823 16.0781 22.7364 17.2454L21.1801 14.9178ZM34.4697 10.2724C35.6142 10.1581 36.791 10.1 38 10.1L38 12.9C36.8808 12.9 35.7969 12.9538 34.7478 13.0585L34.4697 10.2724Z" fill="white"/>
</svg>
