<svg width="14" height="12" viewBox="0 0 14 12" fill="none" xmlns="http://www.w3.org/2000/svg">
<path d="M12.7716 1.16151C11.1337 -0.387248 8.48285 -0.387093 6.84509 1.16151L0.954804 6.73108C-0.318268 7.9348 -0.318268 9.89344 0.954804 11.0972C2.2282 12.3013 4.29966 12.3006 5.57235 11.0972L11.4626 5.52763C12.3748 4.66511 12.3748 3.26171 11.4626 2.39919C10.5505 1.53664 9.06623 1.53664 8.15404 2.39919L3.13025 7.14943C2.93953 7.32977 2.93953 7.62219 3.13025 7.8025C3.32097 7.98284 3.63023 7.98284 3.82093 7.8025L8.84472 3.05226C9.37606 2.54984 10.2406 2.54984 10.7719 3.05226C11.3033 3.55467 11.3033 4.37215 10.7719 4.87454L4.88167 10.4441C3.98726 11.2898 2.53979 11.2897 1.64548 10.4441C1.21328 10.0355 0.975257 9.49212 0.975257 8.91416C0.975257 8.3362 1.21331 7.79286 1.64548 7.38417L7.53577 1.81458C8.79194 0.626807 10.8249 0.626962 12.0809 1.81458C13.334 2.99946 13.334 4.92739 12.0809 6.11224L9.46299 8.58761C9.27227 8.76795 9.27227 9.06034 9.46299 9.24068C9.65371 9.42102 9.96297 9.42102 10.1537 9.24068L12.7716 6.76531C14.4096 5.2166 14.4094 2.71007 12.7716 1.16151Z" fill="black"/>
</svg>
