<svg width="10" height="10" viewBox="0 0 10 10" fill="none" xmlns="http://www.w3.org/2000/svg">
<path d="M6.34181 2.71678C6.64222 2.41638 7.05674 2.34385 7.35715 2.64426C7.65755 2.94466 7.58503 3.35919 7.28462 3.65959L3.65843 7.28578C3.35803 7.58618 2.94351 7.6587 2.6431 7.3583C2.3427 7.0579 2.41522 6.64337 2.71563 6.34297L6.34181 2.71678Z" fill="black"/>
<path d="M7.28456 6.34474C7.58497 6.64515 7.65749 7.05967 7.35709 7.36008C7.05668 7.66048 6.64216 7.58796 6.34175 7.28755L2.71557 3.66136C2.41516 3.36096 2.34264 2.94643 2.64304 2.64603C2.94345 2.34563 3.35797 2.41815 3.65837 2.71855L7.28456 6.34474Z" fill="black"/>
</svg>
