<svg width="24" height="24" viewBox="0 0 24 24" fill="none" xmlns="http://www.w3.org/2000/svg">
<path d="M22.6912 1.30889C21.8471 0.464906 20.7249 9.375e-05 19.5313 9.375e-05L4.46878 0C2.00466 0.000140625 0 2.00484 4.6875e-05 4.46878L0 19.5313C4.6875e-05 21.9953 2.00475 24 4.46883 24H19.5313C21.9953 24 24 21.9953 24 19.5313V4.46883C24 3.27516 23.5352 2.15292 22.6912 1.30889ZM22.5938 19.5313C22.5938 21.2199 21.2199 22.5938 19.5313 22.5938H4.46883C2.78016 22.5938 1.4063 21.2199 1.40625 19.5313L1.4063 4.46873C1.40625 2.78016 2.78011 1.40634 4.46883 1.40625L19.5313 1.40634C20.3493 1.40634 21.1184 1.72486 21.6968 2.30325C22.2752 2.88169 22.5938 3.65077 22.5938 4.46883V19.5313Z" fill="#BCBCBC"/>
<path d="M16.225 10.1947C15.9505 9.9202 15.5053 9.92015 15.2307 10.1947L12.7033 12.7222L12.7032 5.22168C12.7032 4.83337 12.3884 4.51855 12.0001 4.51855C11.6118 4.51855 11.297 4.83337 11.297 5.22168L11.297 12.7224L8.7694 10.1948C8.49485 9.92024 8.04963 9.92024 7.77504 10.1948C7.50044 10.4694 7.50044 10.9146 7.77504 11.1892L11.5029 14.917C11.6348 15.0489 11.8136 15.1229 12.0001 15.1229C12.1865 15.1229 12.3654 15.0488 12.4973 14.917L16.2251 11.1891C16.4996 10.9145 16.4996 10.4693 16.225 10.1947Z" fill="#BCBCBC"/>
<path d="M18.7782 18.0752H5.22192C4.83361 18.0752 4.5188 18.39 4.5188 18.7783C4.5188 19.1666 4.83361 19.4814 5.22192 19.4814H18.7782C19.1665 19.4814 19.4813 19.1666 19.4813 18.7783C19.4813 18.39 19.1665 18.0752 18.7782 18.0752Z" fill="#3E82E7"/>
</svg>
