<svg width="16" height="16" viewBox="0 0 16 16" fill="none" xmlns="http://www.w3.org/2000/svg">
<path d="M8 8.79297C8.30204 8.79297 8.54688 8.54813 8.54688 8.24609V1.54688C8.54688 1.24484 8.30204 1 8 1C7.69796 1 7.45312 1.24484 7.45312 1.54688V8.24609C7.45312 8.54813 7.69796 8.79297 8 8.79297Z" fill="#4F5DD9"/>
<path d="M6.80978 11.044L6.81254 11.0468C7.13249 11.3668 7.55271 11.5267 7.97293 11.5267C8.39282 11.5267 8.81266 11.3669 9.13198 11.0476L12.1594 8.03199C12.3734 7.81885 12.374 7.47259 12.1609 7.2586C11.9478 7.04464 11.6015 7.04393 11.3875 7.25707L8.35935 10.2734C8.25605 10.3767 8.11873 10.4336 7.97266 10.4336C7.82711 10.4336 7.69022 10.3771 7.58705 10.2745L4.61602 7.2606C4.404 7.04548 4.05771 7.04302 3.84263 7.25505C3.62754 7.46707 3.62505 7.81332 3.83708 8.02844L6.80978 11.044Z" fill="#4F5DD9"/>
<path d="M14.4531 12.2656C14.1511 12.2656 13.9062 12.5105 13.9062 12.8125C13.9062 13.4156 13.4156 13.9062 12.8125 13.9062H3.1875C2.58441 13.9062 2.09375 13.4156 2.09375 12.8125C2.09375 12.5105 1.84891 12.2656 1.54688 12.2656C1.24484 12.2656 1 12.5105 1 12.8125C1 14.0187 1.98131 15 3.1875 15H12.8125C14.0187 15 15 14.0187 15 12.8125C15 12.5105 14.7552 12.2656 14.4531 12.2656Z" fill="#4F5DD9"/>
<path d="M8 8.79297C8.30204 8.79297 8.54688 8.54813 8.54688 8.24609V1.54688C8.54688 1.24484 8.30204 1 8 1C7.69796 1 7.45312 1.24484 7.45312 1.54688V8.24609C7.45312 8.54813 7.69796 8.79297 8 8.79297Z" stroke="#3E82E7" stroke-width="0.3"/>
<path d="M6.80978 11.044L6.81254 11.0468C7.13249 11.3668 7.55271 11.5267 7.97293 11.5267C8.39282 11.5267 8.81266 11.3669 9.13198 11.0476L12.1594 8.03199C12.3734 7.81885 12.374 7.47259 12.1609 7.2586C11.9478 7.04464 11.6015 7.04393 11.3875 7.25707L8.35935 10.2734C8.25605 10.3767 8.11873 10.4336 7.97266 10.4336C7.82711 10.4336 7.69022 10.3771 7.58705 10.2745L4.61602 7.2606C4.404 7.04548 4.05771 7.04302 3.84263 7.25505C3.62754 7.46707 3.62505 7.81332 3.83708 8.02844L6.80978 11.044Z" stroke="#3E82E7" stroke-width="0.3"/>
<path d="M14.4531 12.2656C14.1511 12.2656 13.9062 12.5105 13.9062 12.8125C13.9062 13.4156 13.4156 13.9062 12.8125 13.9062H3.1875C2.58441 13.9062 2.09375 13.4156 2.09375 12.8125C2.09375 12.5105 1.84891 12.2656 1.54688 12.2656C1.24484 12.2656 1 12.5105 1 12.8125C1 14.0187 1.98131 15 3.1875 15H12.8125C14.0187 15 15 14.0187 15 12.8125C15 12.5105 14.7552 12.2656 14.4531 12.2656Z" stroke="#3E82E7" stroke-width="0.3"/>
</svg>
