<svg width="16" height="12" viewBox="0 0 16 12" fill="none" xmlns="http://www.w3.org/2000/svg">
<path d="M8.0317 7.2063C8.70478 7.2063 9.25042 6.66628 9.25042 6.00012C9.25042 5.33397 8.70478 4.79394 8.0317 4.79394C7.35861 4.79394 6.81297 5.33397 6.81297 6.00012C6.81297 6.66628 7.35861 7.2063 8.0317 7.2063Z" fill="#4F5DD9"/>
<path d="M8.03163 2.47425C6.06731 2.47425 4.46921 4.0559 4.46921 6C4.46921 7.9441 6.06731 9.52575 8.03163 9.52575C9.99595 9.52575 11.5941 7.9441 11.5941 6C11.5941 4.0559 9.99595 2.47425 8.03163 2.47425ZM8.03163 8.28865C6.75653 8.28865 5.71919 7.26197 5.71919 6C5.71919 4.73803 6.75653 3.71135 8.03163 3.71135C9.30673 3.71135 10.3441 4.73803 10.3441 6C10.3441 7.26197 9.30673 8.28865 8.03163 8.28865Z" fill="#4F5DD9"/>
<path d="M15.5953 4.64985C15.2634 4.14553 14.3271 2.85083 12.803 1.72299C11.2581 0.579723 9.64683 0 8.01404 0C6.38356 0 4.77093 0.578146 3.22093 1.71832C1.69005 2.84443 0.746198 4.13752 0.411447 4.64119C-0.137149 5.46664 -0.137149 6.53333 0.411447 7.35878C0.746198 7.86248 1.69005 9.15557 3.22093 10.2817C4.77093 11.4219 6.38353 12 8.01404 12C10.5242 12 12.5427 10.6148 13.794 9.45276C14.0457 9.219 14.0583 8.82757 13.8221 8.57845C13.5859 8.32929 13.1904 8.31685 12.9387 8.55061C11.8519 9.55987 10.1153 10.7629 8.01398 10.7629C4.97947 10.7629 2.46377 8.19583 1.45567 6.67897C1.18154 6.26651 1.18154 5.73355 1.45567 5.32109C2.46377 3.80423 4.97947 1.23717 8.01398 1.23717C11.0484 1.23717 13.5487 3.80671 14.5478 5.32499C14.8176 5.73507 14.8176 6.265 14.5478 6.67508C14.3594 6.96135 14.4412 7.34452 14.7305 7.53096C15.0197 7.71737 15.4069 7.63646 15.5953 7.35015C16.1349 6.52996 16.1349 5.47001 15.5953 4.64985Z" fill="#4F5DD9"/>
</svg>
