<svg width="14" height="14" viewBox="0 0 14 14" fill="none" xmlns="http://www.w3.org/2000/svg">
<path d="M13.039 0.961082C11.7575 -0.320356 9.67999 -0.320356 8.39855 0.961055L5.65613 3.70347C4.33064 5.02901 4.45336 7.14105 5.65613 8.34387C5.85755 8.54529 6.0804 8.70951 6.31572 8.8444L6.81625 8.34387C7.14454 8.01553 7.02898 7.6317 7.02308 7.35474C6.95103 7.30366 6.88095 7.24845 6.81625 7.18376C6.19902 6.56658 6.17126 5.50854 6.81625 4.86356C6.91203 4.76777 9.50048 2.17933 9.55861 2.1212C10.1984 1.48138 11.239 1.48138 11.8788 2.1212C12.5186 2.76101 12.5186 3.80158 11.8788 4.4414L10.0661 6.2541C10.1185 6.54413 10.4331 7.23117 10.2713 8.36452C10.2792 8.35675 10.2887 8.35175 10.2965 8.3439L13.039 5.60148C14.3203 4.32005 14.3203 2.24252 13.039 0.961082Z" fill="#4F5DD9"/>
<path d="M8.55636 5.44363C8.35497 5.24221 8.13209 5.07799 7.89682 4.9431L7.39629 5.44363C7.06795 5.77192 7.1835 6.15574 7.18941 6.43271C7.26152 6.48379 7.3316 6.53899 7.39629 6.60369C8.01353 7.22092 8.04128 8.2789 7.39629 8.92389C7.30029 9.01989 4.49744 11.8227 4.44136 11.8788C3.80154 12.5186 2.76097 12.5186 2.12115 11.8788C1.48134 11.239 1.48134 10.1984 2.12115 9.55862L4.14643 7.53335C4.09401 7.24331 3.77939 6.55627 3.94124 5.42293C3.93334 5.4307 3.92382 5.43575 3.91595 5.4436L0.961039 8.39856C-0.320346 9.68 -0.320346 11.7575 0.961039 13.039C2.24248 14.3203 4.31998 14.3203 5.60142 13.039L8.55636 10.084C9.85726 8.78312 9.78617 6.67341 8.55636 5.44363Z" fill="#4F5DD9"/>
</svg>
