<svg width="168" height="15" viewBox="0 0 168 15" fill="none" xmlns="http://www.w3.org/2000/svg">
<path d="M8.08 1.46H4.62V14H3.74V1.46H0.28V0.659999H8.08V1.46ZM28.5995 14L26.8195 9.62H21.1395L19.3595 14H18.3995L24.0195 0.259999L29.5595 14H28.5995ZM21.4595 8.82H26.4995L23.9995 2.5L21.4595 8.82ZM48.3333 2.38L47.6933 2.92C47.1333 1.82667 46.2599 1.28 45.0733 1.28C44.3133 1.28 43.7066 1.52 43.2533 2C42.8133 2.48 42.5933 3.06667 42.5933 3.76C42.5933 4.10667 42.6399 4.40667 42.7333 4.66C42.8399 4.91333 43.0199 5.14667 43.2733 5.36C43.5399 5.57333 43.7733 5.74 43.9733 5.86C44.1733 5.96667 44.4933 6.12667 44.9333 6.34C46.3733 7.03333 47.2599 7.5 47.5933 7.74C48.5399 8.39333 49.0133 9.25333 49.0133 10.32C49.0133 11.4267 48.6066 12.3533 47.7933 13.1C46.9799 13.8467 45.9999 14.22 44.8533 14.22C43.5866 14.22 42.5533 13.7533 41.7533 12.82C41.3666 12.3667 41.0799 11.88 40.8933 11.36L41.6533 11C41.8133 11.48 42.0533 11.9067 42.3733 12.28C42.9733 13.04 43.8066 13.42 44.8733 13.42C45.7799 13.42 46.5399 13.1267 47.1533 12.54C47.7799 11.9533 48.0933 11.22 48.0933 10.34C48.0933 9.47333 47.6599 8.77333 46.7933 8.24C46.4066 8.01333 45.6533 7.62667 44.5333 7.08C43.7999 6.72 43.2599 6.42667 42.9133 6.2C42.5799 5.97333 42.3066 5.68 42.0933 5.32C41.8133 4.85333 41.6733 4.34667 41.6733 3.8C41.6733 2.93333 41.9666 2.16667 42.5533 1.5C43.1399 0.819999 43.9866 0.479999 45.0933 0.479999C45.7733 0.479999 46.3999 0.646666 46.9733 0.98C47.5466 1.3 47.9999 1.76667 48.3333 2.38ZM63.3667 0.659999V6.94L69.6667 0.659999H70.8267L64.3667 7.04L71.2067 14H70.0067L63.7267 7.64L63.3667 7.98V14H62.4867V0.659999H63.3667Z" fill="black"/>
<path d="M83.8875 14V0.659999H86.8075C87.9542 0.659999 88.8542 0.966666 89.5075 1.58C90.1608 2.18 90.4875 2.98667 90.4875 4C90.4875 5.30667 89.9675 6.28 88.9275 6.92C89.7808 7.05333 90.4542 7.42667 90.9475 8.04C91.4408 8.65333 91.6875 9.39333 91.6875 10.26C91.6875 11.4067 91.3008 12.32 90.5275 13C89.7675 13.6667 88.7742 14 87.5475 14H83.8875ZM84.7675 1.46V6.7H86.8875C87.6475 6.7 88.2542 6.51333 88.7075 6.14C89.2942 5.66 89.5875 4.98 89.5875 4.1C89.5875 3.20667 89.2875 2.51333 88.6875 2.02C88.2075 1.64667 87.4675 1.46 86.4675 1.46H84.7675ZM84.7675 7.5V13.2H87.0075C87.4208 13.2 87.7475 13.1933 87.9875 13.18C88.2275 13.1533 88.5342 13.08 88.9075 12.96C89.2942 12.84 89.6275 12.6533 89.9075 12.4C90.4808 11.8933 90.7675 11.2133 90.7675 10.36C90.7675 9.14667 90.2942 8.32 89.3475 7.88C88.7742 7.62667 87.9408 7.5 86.8475 7.5H84.7675ZM106.451 2.48C107.784 1.14667 109.424 0.479999 111.371 0.479999C113.318 0.479999 114.958 1.14667 116.291 2.48C117.624 3.81333 118.291 5.44 118.291 7.36C118.291 9.28 117.624 10.9067 116.291 12.24C114.958 13.56 113.318 14.22 111.371 14.22C109.411 14.22 107.764 13.56 106.431 12.24C105.111 10.9067 104.451 9.28 104.451 7.36C104.451 5.44 105.118 3.81333 106.451 2.48ZM107.091 11.68C108.238 12.84 109.664 13.42 111.371 13.42C113.078 13.42 114.504 12.84 115.651 11.68C116.798 10.5067 117.371 9.06667 117.371 7.36C117.371 5.64 116.798 4.2 115.651 3.04C114.504 1.86667 113.078 1.28 111.371 1.28C109.664 1.28 108.238 1.86667 107.091 3.04C105.944 4.2 105.371 5.64 105.371 7.36C105.371 9.06667 105.944 10.5067 107.091 11.68ZM133.047 2.48C134.381 1.14667 136.021 0.479999 137.967 0.479999C139.914 0.479999 141.554 1.14667 142.887 2.48C144.221 3.81333 144.887 5.44 144.887 7.36C144.887 9.28 144.221 10.9067 142.887 12.24C141.554 13.56 139.914 14.22 137.967 14.22C136.007 14.22 134.361 13.56 133.027 12.24C131.707 10.9067 131.047 9.28 131.047 7.36C131.047 5.44 131.714 3.81333 133.047 2.48ZM133.687 11.68C134.834 12.84 136.261 13.42 137.967 13.42C139.674 13.42 141.101 12.84 142.247 11.68C143.394 10.5067 143.967 9.06667 143.967 7.36C143.967 5.64 143.394 4.2 142.247 3.04C141.101 1.86667 139.674 1.28 137.967 1.28C136.261 1.28 134.834 1.86667 133.687 3.04C132.541 4.2 131.967 5.64 131.967 7.36C131.967 9.06667 132.541 10.5067 133.687 11.68ZM159.243 0.659999V6.94L165.543 0.659999H166.703L160.243 7.04L167.083 14H165.883L159.603 7.64L159.243 7.98V14H158.363V0.659999H159.243Z" fill="#4F5DD9"/>
</svg>
