<svg width="21" height="21" viewBox="0 0 21 21" fill="none" xmlns="http://www.w3.org/2000/svg">
<path d="M9.59899 19.3237H2.46316C2.19803 19.3237 1.95644 19.2011 1.80023 18.9871C1.64398 18.7731 1.60097 18.5058 1.68215 18.2536C2.49286 15.7375 4.96526 13.9802 7.69452 13.9802C8.96445 13.9802 10.184 14.362 11.2213 15.0842C11.5928 15.3428 12.104 15.2519 12.3633 14.881C12.6223 14.5101 12.5313 13.9998 12.1597 13.741C11.6462 13.3835 11.0976 13.0918 10.5238 12.8692C11.2873 12.1762 11.7938 11.2058 11.8818 10.1192C13.0395 8.99336 14.557 8.37648 16.1837 8.37648C17.4536 8.37648 18.6731 8.75826 19.7104 9.48046C20.082 9.73914 20.5932 9.64821 20.8524 9.27731C21.1115 8.9064 21.0204 8.39605 20.6489 8.13732C20.1354 7.77979 19.5868 7.48813 19.013 7.26545C19.8552 6.50101 20.3847 5.399 20.3847 4.17583C20.3847 1.8733 18.5082 0 16.2016 0C13.8951 0 12.0186 1.8733 12.0186 4.17592C12.0186 5.39412 12.5438 6.49219 13.3801 7.25627C13.2657 7.30023 13.1521 7.34699 13.0393 7.39654C12.5261 7.622 12.0434 7.89877 11.5947 8.22436C10.9756 6.68976 9.46862 5.60375 7.71244 5.60375C5.40587 5.60375 3.52938 7.47705 3.52938 9.77966C3.52938 10.9943 4.05159 12.0895 4.88358 12.8533C2.65885 13.6856 0.854967 15.473 0.120595 17.7523C-0.122963 18.5083 0.00604695 19.31 0.474592 19.9517C0.943056 20.5934 1.66781 20.9614 2.4632 20.9614H9.59903C10.052 20.9614 10.4192 20.5948 10.4192 20.1427C10.4192 19.6905 10.052 19.3237 9.59899 19.3237ZM16.2017 1.63759C17.6037 1.63759 18.7443 2.77626 18.7443 4.17587C18.7443 5.57549 17.6037 6.71416 16.2017 6.71416C14.7997 6.71416 13.659 5.57549 13.659 4.17587C13.659 2.77626 14.7997 1.63759 16.2017 1.63759ZM7.71248 7.24129C9.1145 7.24129 10.2551 8.37997 10.2551 9.77958C10.2551 11.1792 9.1145 12.3179 7.71248 12.3179C6.31046 12.3179 5.16983 11.1792 5.16983 9.77958C5.16983 8.37997 6.31046 7.24129 7.71248 7.24129Z" fill="#8094AE"/>
<path d="M20.6571 13.3744C20.2888 13.1112 19.7764 13.1958 19.5128 13.5636L15.4699 19.2011C15.3595 19.3289 15.2211 19.3565 15.147 19.3614C15.0707 19.3666 14.9225 19.3567 14.7955 19.236L12.1782 16.7272C11.8514 16.4139 11.3321 16.4245 11.0185 16.7507C10.7047 17.0768 10.7153 17.5952 11.042 17.9084L13.6619 20.4197C14.0543 20.7925 14.5781 21 15.117 21C15.1633 21 15.2097 20.9985 15.2561 20.9954C15.8432 20.9563 16.3912 20.6713 16.7598 20.2135C16.7694 20.2017 16.7785 20.1896 16.7874 20.1772L20.8467 14.5168C21.1103 14.1491 21.0255 13.6377 20.6571 13.3744Z" fill="#8094AE"/>
</svg>
