<svg width="21" height="21" viewBox="0 0 21 21" fill="none" xmlns="http://www.w3.org/2000/svg">
<path d="M20.1429 15.2168C20.6163 15.2168 21 14.8495 21 14.3965V10.623C21 9.26607 19.8465 8.16209 18.4286 8.16209H16.7571V4.92187C16.7571 3.11259 15.2191 1.64062 13.3286 1.64062H11.2914C10.9598 0.666544 10.0116 0 8.92744 0H7.8297C6.74559 0 5.79737 0.666544 5.4657 1.64062H3.42857C1.53806 1.64062 0 3.11259 0 4.92187V17.7187C0 19.528 1.53806 21 3.42857 21H7.2C7.6734 21 8.05714 20.6327 8.05714 20.1796C8.05714 19.7266 7.6734 19.3593 7.2 19.3593H3.42857C2.48331 19.3593 1.71429 18.6234 1.71429 17.7187V4.92187C1.71429 4.01723 2.48331 3.28124 3.42857 3.28124H3.51429V5.70116C3.51429 6.15422 3.89803 6.52147 4.37143 6.52147H12.4714C12.9448 6.52147 13.3286 6.15422 13.3286 5.70116V3.28124C14.2738 3.28124 15.0429 4.01723 15.0429 4.92187V8.16209H12.2568C10.8392 8.16209 9.68571 9.26595 9.68571 10.6227V18.5394C9.68571 19.8961 10.8393 21 12.2576 21L18.4286 20.9969C19.8465 20.9969 21 19.8931 21 18.5363C21 18.0833 20.6163 17.716 20.1429 17.716C19.6695 17.716 19.2857 18.0833 19.2857 18.5363C19.2857 18.9885 18.9012 19.3563 18.4281 19.3563L12.2571 19.3593C11.7845 19.3593 11.4 18.9915 11.4 18.5393V10.6227C11.4 10.1706 11.7844 9.80272 12.2568 9.80272H18.4286C18.9012 9.80272 19.2857 10.1707 19.2857 10.623V14.3965C19.2857 14.8495 19.6695 15.2168 20.1429 15.2168ZM11.6143 4.88085H5.22857V3.28124H6.12857C6.52187 3.28124 6.86473 3.02506 6.96013 2.6599L7.08004 2.20077C7.16619 1.87097 7.47446 1.64062 7.8297 1.64062H8.92744C9.28269 1.64062 9.59091 1.87097 9.6771 2.20077L9.79701 2.6599C9.89241 3.02506 10.2353 3.28124 10.6286 3.28124H11.6143V4.88085Z" fill="#8094AE"/>
<path d="M16.7143 11.4433H13.9714C13.498 11.4433 13.1143 11.8106 13.1143 12.2636C13.1143 12.7167 13.498 13.084 13.9714 13.084H16.7143C17.1877 13.084 17.5714 12.7167 17.5714 12.2636C17.5714 11.8106 17.1877 11.4433 16.7143 11.4433Z" fill="#8094AE"/>
<path d="M16.7143 14.3144H13.9714C13.498 14.3144 13.1143 14.6817 13.1143 15.1347C13.1143 15.5878 13.498 15.955 13.9714 15.955H16.7143C17.1877 15.955 17.5714 15.5878 17.5714 15.1347C17.5714 14.6817 17.1877 14.3144 16.7143 14.3144Z" fill="#8094AE"/>
</svg>
