<svg width="21" height="21" viewBox="0 0 21 21" fill="none" xmlns="http://www.w3.org/2000/svg">
<path d="M10.5 5.74219C7.87652 5.74219 5.74219 7.87656 5.74219 10.5C5.74219 13.1234 7.87652 15.2578 10.5 15.2578C10.99 15.2578 11.4735 15.1835 11.937 15.0367C12.369 14.9 12.6082 14.4391 12.4715 14.0071C12.3349 13.5752 11.8738 13.3359 11.4419 13.4726C11.1387 13.5685 10.8218 13.6172 10.5 13.6172C8.7812 13.6172 7.38281 12.2188 7.38281 10.5C7.38281 8.78116 8.7812 7.38281 10.5 7.38281C12.2188 7.38281 13.6172 8.78116 13.6172 10.5C13.6172 10.7987 13.5752 11.0939 13.4923 11.3772C13.3651 11.812 13.6145 12.2676 14.0494 12.3948C14.4843 12.5219 14.9398 12.2725 15.067 11.8377C15.1936 11.4047 15.2578 10.9546 15.2578 10.5C15.2578 7.87656 13.1235 5.74219 10.5 5.74219Z" fill="#8094AE"/>
<path d="M18.5391 7.62895H18.126C18.0173 7.62895 17.9188 7.56049 17.8761 7.45722L17.8688 7.4395C17.8247 7.3331 17.8458 7.21469 17.9226 7.13783L18.2148 6.84571C19.1743 5.88619 19.1743 4.32493 18.2148 3.36541L17.6347 2.78537C17.1699 2.32054 16.5519 2.06456 15.8945 2.06456C15.2371 2.06456 14.6192 2.32054 14.1544 2.78537L13.8623 3.07744C13.7854 3.15435 13.6669 3.17543 13.561 3.13142L13.5455 3.12502C13.4395 3.08126 13.3711 2.98278 13.3711 2.87413V2.46094C13.3711 1.10398 12.2672 0 10.9102 0H10.0899C8.73292 0 7.62895 1.10398 7.62895 2.46094V2.87413C7.62895 2.98278 7.56053 3.08126 7.45549 3.12461L7.43946 3.13126C7.33318 3.17547 7.21465 3.15435 7.13783 3.07748L6.84571 2.78537C6.38092 2.32054 5.7629 2.06456 5.10554 2.06456C4.44819 2.06456 3.8302 2.32054 3.36537 2.78537L2.78533 3.36533C1.82581 4.32489 1.82581 5.88611 2.78537 6.84567L3.07744 7.13774C3.15431 7.21465 3.17539 7.33306 3.12998 7.44249L3.12502 7.45447C3.0813 7.56041 2.98274 7.62886 2.87409 7.62886H2.46094C1.10398 7.62886 0 8.73284 0 10.0898V10.9101C0 12.2671 1.10398 13.3711 2.46094 13.3711H2.87405C2.98274 13.3711 3.08122 13.4395 3.12391 13.5428L3.13121 13.5605C3.17539 13.6669 3.15427 13.7853 3.0774 13.8622L2.78533 14.1543C2.3205 14.6191 2.06452 15.2371 2.06452 15.8945C2.06452 16.5518 2.3205 17.1698 2.78529 17.6346L3.36533 18.2146C3.83016 18.6795 4.44819 18.9354 5.1055 18.9354C5.7629 18.9354 6.38088 18.6795 6.84567 18.2146L7.13774 17.9226C7.21457 17.8457 7.33314 17.8246 7.43909 17.8686L7.45455 17.875C7.56049 17.9187 7.62891 18.0172 7.62891 18.1259V18.5391C7.62891 19.896 8.73288 21 10.0898 21H10.9102C12.2671 21 13.3711 19.896 13.3711 18.5391V18.1259C13.3711 18.0172 13.4395 17.9187 13.5445 17.8754L13.5606 17.8687C13.6669 17.8246 13.7854 17.8457 13.8622 17.9225L14.1543 18.2146C14.6191 18.6795 15.2371 18.9354 15.8945 18.9354C16.5519 18.9354 17.1698 18.6795 17.6347 18.2146L18.2147 17.6346C18.6795 17.1698 18.9355 16.5518 18.9355 15.8945C18.9355 15.2371 18.6795 14.6191 18.2147 14.1543L17.9226 13.8622C17.8457 13.7854 17.8246 13.6669 17.8688 13.5605L17.875 13.5455C17.9187 13.4396 18.0173 13.3711 18.1259 13.3711H18.5391C19.896 13.3711 21 12.2672 21 10.9102V10.0899C21 8.73292 19.896 7.62895 18.5391 7.62895ZM19.3594 10.9102C19.3594 11.3625 18.9914 11.7305 18.5391 11.7305H18.1259C17.3505 11.7305 16.6568 12.1971 16.3586 12.9192L16.3533 12.9321C16.0539 13.6539 16.2145 14.4743 16.7624 15.0223L17.0546 15.3144C17.2095 15.4693 17.2948 15.6754 17.2948 15.8945C17.2948 16.1136 17.2095 16.3195 17.0545 16.4745L16.4745 17.0545C16.3195 17.2095 16.1136 17.2948 15.8945 17.2948C15.6753 17.2948 15.4693 17.2095 15.3144 17.0545L15.0223 16.7624C14.474 16.2142 13.6531 16.0538 12.9308 16.3538L12.9193 16.3586C12.1971 16.6568 11.7305 17.3505 11.7305 18.1259V18.5391C11.7305 18.9914 11.3625 19.3594 10.9102 19.3594H10.0898C9.63752 19.3594 9.26953 18.9914 9.26953 18.5391V18.1259C9.26953 17.3505 8.8029 16.6568 8.07987 16.3582L8.0688 16.3536C7.82722 16.2533 7.57468 16.2045 7.3249 16.2045C6.82816 16.2045 6.34253 16.3976 5.9777 16.7624L5.68559 17.0546C5.53063 17.2095 5.32469 17.2948 5.10554 17.2948C4.88644 17.2948 4.68042 17.2095 4.5255 17.0545L3.94546 16.4745C3.7905 16.3195 3.70519 16.1136 3.70519 15.8945C3.70519 15.6754 3.7905 15.4693 3.94546 15.3144L4.23757 15.0223C4.78558 14.4743 4.94612 13.6539 4.64674 12.9321L4.64141 12.9192C4.34314 12.1971 3.64945 11.7305 2.87409 11.7305H2.46094C2.00862 11.7305 1.64062 11.3625 1.64062 10.9102V10.0898C1.64062 9.63752 2.00862 9.26953 2.46094 9.26953H2.87409C3.64949 9.26953 4.34319 8.80294 4.64252 8.07815L4.64633 8.06884C4.94624 7.3468 4.78579 6.526 4.23753 5.9777L3.94546 5.68563C3.62558 5.36575 3.62558 4.84534 3.94546 4.5255L4.52546 3.94546C4.68046 3.79054 4.88644 3.70519 5.10554 3.70519C5.32469 3.70519 5.53067 3.7905 5.68559 3.94546L5.97774 4.23761C6.52608 4.78583 7.34692 4.94628 8.06917 4.64621L8.08074 4.64141C8.8029 4.34323 9.26953 3.64953 9.26953 2.87413V2.46094C9.26953 2.00862 9.63752 1.64062 10.0898 1.64062H10.9102C11.3625 1.64062 11.7305 2.00862 11.7305 2.46094V2.87413C11.7305 3.64953 12.1971 4.34323 12.9201 4.64174L12.9312 4.64633C13.6531 4.94616 14.474 4.78574 15.0223 4.23753L15.3144 3.94537C15.4694 3.79046 15.6753 3.70515 15.8945 3.70515C16.1136 3.70515 16.3196 3.7905 16.4745 3.94542L17.0545 4.52546C17.3744 4.8453 17.3744 5.36571 17.0546 5.68554L16.7624 5.9777C16.2142 6.526 16.0538 7.34676 16.3524 8.0658L16.3586 8.08078C16.6569 8.80294 17.3506 9.26953 18.1259 9.26953H18.5391C18.9914 9.26953 19.3594 9.63752 19.3594 10.0898V10.9102Z" fill="#8094AE"/>
</svg>
