<svg width="21" height="21" viewBox="0 0 21 21" fill="none" xmlns="http://www.w3.org/2000/svg">
<path d="M20.1797 14.4375C20.6327 14.4375 21 14.0702 21 13.6172V4.92188C21 3.11259 19.528 1.64062 17.7188 1.64062H16.6523V0.820312C16.6523 0.367254 16.2851 0 15.832 0C15.379 0 15.0117 0.367254 15.0117 0.820312V1.64062H11.2793V0.820312C11.2793 0.367254 10.912 0 10.459 0C10.0059 0 9.63867 0.367254 9.63867 0.820312V1.64062H5.94727V0.820312C5.94727 0.367254 5.58001 0 5.12695 0C4.67389 0 4.30664 0.367254 4.30664 0.820312V1.64062H3.28125C1.47197 1.64062 0 3.11259 0 4.92188V17.7188C0 19.528 1.47197 21 3.28125 21H17.7188C19.528 21 21 19.528 21 17.7188C21 17.2657 20.6327 16.8984 20.1797 16.8984C19.7266 16.8984 19.3594 17.2657 19.3594 17.7188C19.3594 18.6234 18.6234 19.3594 17.7188 19.3594H3.28125C2.37661 19.3594 1.64062 18.6234 1.64062 17.7188V4.92188C1.64062 4.01723 2.37661 3.28125 3.28125 3.28125H4.30664V4.10156C4.30664 4.55462 4.67389 4.92188 5.12695 4.92188C5.58001 4.92188 5.94727 4.55462 5.94727 4.10156V3.28125H9.63867V4.10156C9.63867 4.55462 10.0059 4.92188 10.459 4.92188C10.912 4.92188 11.2793 4.55462 11.2793 4.10156V3.28125H15.0117V4.10156C15.0117 4.55462 15.379 4.92188 15.832 4.92188C16.2851 4.92188 16.6523 4.55462 16.6523 4.10156V3.28125H17.7188C18.6234 3.28125 19.3594 4.01723 19.3594 4.92188V13.6172C19.3594 14.0702 19.7266 14.4375 20.1797 14.4375Z" fill="#8094AE"/>
<path d="M5.12695 9.43359C5.58 9.43359 5.94727 9.06633 5.94727 8.61328C5.94727 8.16024 5.58 7.79297 5.12695 7.79297C4.67391 7.79297 4.30664 8.16024 4.30664 8.61328C4.30664 9.06633 4.67391 9.43359 5.12695 9.43359Z" fill="#8094AE"/>
<path d="M12.2637 9.43359C12.7167 9.43359 13.084 9.06633 13.084 8.61328C13.084 8.16024 12.7167 7.79297 12.2637 7.79297C11.8106 7.79297 11.4434 8.16024 11.4434 8.61328C11.4434 9.06633 11.8106 9.43359 12.2637 9.43359Z" fill="#8094AE"/>
<path d="M15.832 9.43359C16.2851 9.43359 16.6523 9.06633 16.6523 8.61328C16.6523 8.16024 16.2851 7.79297 15.832 7.79297C15.379 7.79297 15.0117 8.16024 15.0117 8.61328C15.0117 9.06633 15.379 9.43359 15.832 9.43359Z" fill="#8094AE"/>
<path d="M5.12695 13.002C5.58 13.002 5.94727 12.6347 5.94727 12.1816C5.94727 11.7286 5.58 11.3613 5.12695 11.3613C4.67391 11.3613 4.30664 11.7286 4.30664 12.1816C4.30664 12.6347 4.67391 13.002 5.12695 13.002Z" fill="#8094AE"/>
<path d="M5.12695 16.5703C5.58 16.5703 5.94727 16.203 5.94727 15.75C5.94727 15.297 5.58 14.9297 5.12695 14.9297C4.67391 14.9297 4.30664 15.297 4.30664 15.75C4.30664 16.203 4.67391 16.5703 5.12695 16.5703Z" fill="#8094AE"/>
<path d="M8.69531 9.43359C9.14836 9.43359 9.51562 9.06633 9.51562 8.61328C9.51562 8.16024 9.14836 7.79297 8.69531 7.79297C8.24227 7.79297 7.875 8.16024 7.875 8.61328C7.875 9.06633 8.24227 9.43359 8.69531 9.43359Z" fill="#8094AE"/>
<path d="M8.69531 13.002C9.14836 13.002 9.51562 12.6347 9.51562 12.1816C9.51562 11.7286 9.14836 11.3613 8.69531 11.3613C8.24227 11.3613 7.875 11.7286 7.875 12.1816C7.875 12.6347 8.24227 13.002 8.69531 13.002Z" fill="#8094AE"/>
<path d="M8.69531 16.5703C9.14836 16.5703 9.51562 16.203 9.51562 15.75C9.51562 15.297 9.14836 14.9297 8.69531 14.9297C8.24227 14.9297 7.875 15.297 7.875 15.75C7.875 16.203 8.24227 16.5703 8.69531 16.5703Z" fill="#8094AE"/>
<path d="M12.2637 13.002C12.7167 13.002 13.084 12.6347 13.084 12.1816C13.084 11.7286 12.7167 11.3613 12.2637 11.3613C11.8106 11.3613 11.4434 11.7286 11.4434 12.1816C11.4434 12.6347 11.8106 13.002 12.2637 13.002Z" fill="#8094AE"/>
<path d="M15.832 13.002C16.2851 13.002 16.6523 12.6347 16.6523 12.1816C16.6523 11.7286 16.2851 11.3613 15.832 11.3613C15.379 11.3613 15.0117 11.7286 15.0117 12.1816C15.0117 12.6347 15.379 13.002 15.832 13.002Z" fill="#8094AE"/>
<path d="M12.2637 16.5703C12.7167 16.5703 13.084 16.203 13.084 15.75C13.084 15.297 12.7167 14.9297 12.2637 14.9297C11.8106 14.9297 11.4434 15.297 11.4434 15.75C11.4434 16.203 11.8106 16.5703 12.2637 16.5703Z" fill="#8094AE"/>
</svg>
