<svg width="21" height="20" viewBox="0 0 21 20" fill="none" xmlns="http://www.w3.org/2000/svg">
<path d="M20.7616 9.16976L12.2144 0.655822C12.2034 0.644863 12.192 0.634229 12.1805 0.62392C11.2472 -0.205341 9.83685 -0.208304 8.89997 0.61706C8.88832 0.627329 8.877 0.637922 8.86597 0.6488L0.240839 9.16728C-0.0798211 9.48403 -0.0803543 9.998 0.23969 10.3153C0.559776 10.6326 1.07916 10.6331 1.39978 10.3165L2.05078 9.6735V16.6825C2.05078 18.4729 3.52274 19.9295 5.33202 19.9295H8.28515C8.73821 19.9295 9.10546 19.5661 9.10546 19.1178V12.5019H11.9766V19.1178C11.9766 19.5661 12.3438 19.9295 12.7969 19.9295H15.668C17.4772 19.9295 18.9492 18.4729 18.9492 16.6825C18.9492 16.2341 18.582 15.8707 18.1289 15.8707C17.6758 15.8707 17.3086 16.2341 17.3086 16.6825C17.3086 17.5777 16.5726 18.306 15.668 18.306H13.6172V11.6901C13.6172 11.2418 13.2499 10.8783 12.7969 10.8783H8.28515C7.83209 10.8783 7.46484 11.2418 7.46484 11.6901V18.306H5.33202C4.42738 18.306 3.6914 17.5777 3.6914 16.6825V8.07773C3.6914 8.06961 3.69128 8.06153 3.69103 8.0535L10.0056 1.81705C10.3129 1.55879 10.7637 1.55977 11.0698 1.81929L17.3086 8.03377V12.6236C17.3086 13.072 17.6758 13.4354 18.1289 13.4354C18.582 13.4354 18.9492 13.072 18.9492 12.6236V9.66798L19.5977 10.314C19.7581 10.4737 19.9688 10.5537 20.1797 10.5537C20.3887 10.5537 20.5978 10.475 20.7578 10.3178C21.0792 10.0018 21.0809 9.48781 20.7616 9.16976Z" fill="#8094AE"/>
</svg>
