<svg width="10" height="10" viewBox="0 0 10 10" fill="none" xmlns="http://www.w3.org/2000/svg">
<path d="M3.84615 1.15385C3.84615 0.516595 4.36275 0 5 0C5.63725 0 6.15385 0.516595 6.15385 1.15385V8.84615C6.15385 9.48341 5.63725 10 5 10C4.36275 10 3.84615 9.48341 3.84615 8.84615V1.15385Z" fill="white"/>
<path d="M8.84615 3.84615C9.48341 3.84615 10 4.36275 10 5C10 5.63725 9.48341 6.15385 8.84615 6.15385H1.15385C0.516594 6.15385 -2.78548e-08 5.63725 0 5C2.78555e-08 4.36275 0.516594 3.84615 1.15385 3.84615L8.84615 3.84615Z" fill="white"/>
</svg>
