<svg width="18" height="18" viewBox="0 0 18 18" fill="none" xmlns="http://www.w3.org/2000/svg">
<path d="M7.418 14.8245C3.32769 14.8245 0 11.4994 0 7.41225C0 3.32511 3.32769 0 7.418 0C11.5083 0 14.836 3.32511 14.836 7.41225C14.836 11.4994 11.5083 14.8245 7.418 14.8245ZM7.418 1.40517C4.1031 1.40517 1.40626 4.09992 1.40626 7.41225C1.40626 10.7246 4.1031 13.4193 7.418 13.4193C10.7329 13.4193 13.4297 10.7246 13.4297 7.41225C13.4297 4.09992 10.7329 1.40517 7.418 1.40517Z" fill="black"/>
<path d="M17.2969 18C17.117 18 16.937 17.9314 16.7997 17.7942L13.6532 14.6502C13.3786 14.3758 13.3786 13.9309 13.6532 13.6566C13.9278 13.3822 14.373 13.3822 14.6476 13.6566L17.7941 16.8006C18.0686 17.075 18.0686 17.5199 17.7941 17.7942C17.6568 17.9314 17.4768 18 17.2969 18Z" fill="black"/>
</svg>
